<?xml version="1.0" encoding="UTF-8" standalone="no"?>
<!-- Created with Inkscape (http://www.inkscape.org/) -->

<svg
   width="1000"
   height="562.5"
   viewBox="0 0 1000 562.5"
   version="1.1"
   id="svg1"
   inkscape:version="1.4.2 (ebf0e94, 2025-05-08)"
   sodipodi:docname="VBergLogoMain.svg"
   xmlns:inkscape="http://www.inkscape.org/namespaces/inkscape"
   xmlns:sodipodi="http://sodipodi.sourceforge.net/DTD/sodipodi-0.dtd"
   xmlns="http://www.w3.org/2000/svg"
   xmlns:svg="http://www.w3.org/2000/svg">
  <sodipodi:namedview
     id="namedview1"
     pagecolor="#ffffff"
     bordercolor="#000000"
     borderopacity="0.25"
     inkscape:showpageshadow="2"
     inkscape:pageopacity="0.0"
     inkscape:pagecheckerboard="0"
     inkscape:deskcolor="#d1d1d1"
     inkscape:document-units="px"
     inkscape:zoom="1"
     inkscape:cx="593.5"
     inkscape:cy="374"
     inkscape:window-width="1718"
     inkscape:window-height="1360"
     inkscape:window-x="0"
     inkscape:window-y="600"
     inkscape:window-maximized="0"
     inkscape:current-layer="layer1" />
  <defs
     id="defs1" />
  <g
     inkscape:label="Lager 1"
     inkscape:groupmode="layer"
     id="layer1">
    <path
       style="font-weight:600;font-size:192px;font-family:Poppins;-inkscape-font-specification:'Poppins Semi-Bold';fill:#e6e6e6;stroke:#e6e6e6"
       d="m 340.8779,208.42672 -49.152,134.016 h -32.64 l -49.152,-134.016 h 28.8 l 36.864,106.56 36.672,-106.56 z"
       id="path3" />
    <path
       style="font-size:192px;font-family:Poppins;-inkscape-font-specification:Poppins;fill:#e6e6e6;stroke:#e6e6e6"
       d="m 478.15801,273.51472 q 7.296,1.152 13.248,5.952 6.144,4.8 9.6,11.904 3.648,7.104 3.648,15.168 0,10.176 -5.184,18.432 -5.184,8.064 -15.168,12.864 -9.792,4.608 -23.232,4.608 h -49.92 v -133.824 h 48 q 13.632,0 23.232,4.608 9.6,4.416 14.4,12.096 4.8,7.68 4.8,17.28 0,11.904 -6.528,19.776 -6.336,7.68 -16.896,11.136 z m -49.536,-7.104 h 29.376 q 12.288,0 19.008,-5.76 6.72,-5.76 6.72,-15.936 0,-10.176 -6.72,-15.936 -6.72,-5.76 -19.392,-5.76 h -28.992 z m 30.912,61.632 q 13.056,0 20.352,-6.144 7.296,-6.144 7.296,-17.088 0,-11.136 -7.68,-17.472 -7.68,-6.528 -20.544,-6.528 h -30.336 v 47.232 z m 165.31217,-42.24 q 0,4.992 -0.576,10.56 h -84.096 q 0.96,15.552 10.56,24.384 9.792,8.64 23.616,8.64 11.328,0 18.816,-5.184 7.68,-5.376 10.752,-14.208 h 18.816 q -4.224,15.168 -16.896,24.768 -12.672,9.408 -31.488,9.408 -14.976,0 -26.88,-6.72 -11.712,-6.72 -18.432,-19.008 -6.72,-12.48 -6.72,-28.8 0,-16.32 6.528,-28.608 6.528,-12.288 18.24,-18.816 11.904,-6.72 27.264,-6.72 14.976,0 26.496,6.528 11.52,6.528 17.664,18.048 6.336,11.328 6.336,25.728 z m -18.048,-3.648 q 0,-9.984 -4.416,-17.088 -4.416,-7.296 -12.096,-10.944 -7.488,-3.84 -16.704,-3.84 -13.248,0 -22.656,8.448 -9.216,8.448 -10.56,23.424 z m 58.56016,-27.84 q 4.608,-9.024 13.056,-14.016 8.64,-4.992 20.928,-4.992 v 18.048 h -4.608 q -29.376,0 -29.376,31.872 v 57.216 h -17.472 v -105.216 h 17.472 z m 97.53585,-18.816 q 13.632,0 23.808,5.952 10.368,5.952 15.36,14.976 v -19.2 h 17.664 v 107.52 q 0,14.4 -6.144,25.536 -6.144,11.328 -17.664,17.664 -11.328,6.336 -26.496,6.336 -20.736,0 -34.56,-9.792 -13.824,-9.792 -16.32,-26.688 h 17.28 q 2.88,9.6 11.904,15.36 9.024,5.952 21.696,5.952 14.4,0 23.424,-9.024 9.216,-9.024 9.216,-25.344 v -22.08 q -5.184,9.216 -15.36,15.36 -10.176,6.144 -23.808,6.144 -14.016,0 -25.536,-6.912 -11.328,-6.912 -17.856,-19.392 -6.528,-12.48 -6.528,-28.416 0,-16.128 6.528,-28.224 6.528,-12.288 17.856,-19.008 11.52,-6.72 25.536,-6.72 z m 39.168,54.144 q 0,-11.904 -4.8,-20.736 -4.8,-8.832 -13.056,-13.44 -8.064,-4.8 -17.856,-4.8 -9.792,0 -17.856,4.608 -8.064,4.608 -12.864,13.44 -4.8,8.832 -4.8,20.736 0,12.096 4.8,21.12 4.8,8.832 12.864,13.632 8.064,4.608 17.856,4.608 9.792,0 17.856,-4.608 8.256,-4.8 13.056,-13.632 4.8,-9.024 4.8,-20.928 z"
       id="path4" />
    <g
       id="g2"
       style="fill:#ff6600;stroke:#ff6600;stroke-opacity:1"
       transform="translate(9,1)">
      <circle
         style="fill:#ff6600;stroke:#ff6600;stroke-opacity:1"
         id="path1"
         cx="359.5813"
         cy="236.26801"
         r="15" />
      <circle
         style="fill:#ff6600;stroke:#ff6600;stroke-opacity:1"
         id="path1-8"
         cx="359.5813"
         cy="313.25"
         r="15" />
    </g>
  </g>
</svg>
